<svg xmlns="http://www.w3.org/2000/svg" viewBox="0 0 1200 630" fill="none">
  <defs>
    <linearGradient id="bg" x1="160" y1="40" x2="1040" y2="590" gradientUnits="userSpaceOnUse">
      <stop offset="0" stop-color="#f8fbff"/>
      <stop offset="1" stop-color="#dbeafe"/>
    </linearGradient>
    <linearGradient id="panel" x1="124" y1="82" x2="1030" y2="550" gradientUnits="userSpaceOnUse">
      <stop offset="0" stop-color="#0f172a"/>
      <stop offset="1" stop-color="#1e3a8a"/>
    </linearGradient>
    <linearGradient id="accent" x1="782" y1="148" x2="1065" y2="420" gradientUnits="userSpaceOnUse">
      <stop offset="0" stop-color="#38bdf8"/>
      <stop offset="1" stop-color="#1d4ed8"/>
    </linearGradient>
    <linearGradient id="logoA" x1="0" y1="0" x2="1" y2="1">
      <stop offset="0" stop-color="#3b82f6"/>
      <stop offset="1" stop-color="#1e40af"/>
    </linearGradient>
    <linearGradient id="logoB" x1="0" y1="0" x2="0" y2="1">
      <stop offset="0" stop-color="#38bdf8"/>
      <stop offset="1" stop-color="#0284c7"/>
    </linearGradient>
    <filter id="shadow" x="62" y="32" width="1076" height="566" filterUnits="userSpaceOnUse" color-interpolation-filters="sRGB">
      <feOffset dy="14"/>
      <feGaussianBlur stdDeviation="24"/>
      <feColorMatrix values="0 0 0 0 0.0588235 0 0 0 0 0.0901961 0 0 0 0 0.164706 0 0 0 0.18 0"/>
      <feBlend in2="SourceGraphic" result="shape"/>
    </filter>
  </defs>

  <rect width="1200" height="630" fill="url(#bg)"/>
  <circle cx="1046" cy="108" r="124" fill="#bfdbfe" fill-opacity="0.48"/>
  <circle cx="112" cy="566" r="144" fill="#dbeafe" fill-opacity="0.92"/>

  <g filter="url(#shadow)">
    <rect x="110" y="80" width="980" height="470" rx="34" fill="url(#panel)"/>
    <rect x="110.75" y="80.75" width="978.5" height="468.5" rx="33.25" stroke="#bfdbfe" stroke-opacity="0.28" stroke-width="1.5"/>
  </g>

  <g opacity="0.78">
    <circle cx="950" cy="168" r="98" fill="url(#accent)"/>
    <circle cx="1038" cy="274" r="48" fill="#60a5fa" fill-opacity="0.36"/>
  </g>

  <g>
    <rect x="172" y="150" width="70" height="320" rx="22" fill="url(#logoA)"/>
    <rect x="172" y="400" width="180" height="70" rx="22" fill="url(#logoA)"/>
    <path d="M 312 150 h 42 c 88.37 0 160 71.63 160 160 c 0 88.37 -71.63 160 -160 160 h -42 v -70 h 42 c 49.71 0 90 -40.29 90 -90 c 0 -49.71 -40.29 -90 -90 -90 h -42 v -70 Z" fill="url(#logoB)"/>
  </g>

  <text x="568" y="204" fill="#e0f2fe" font-family="Helvetica, Arial, sans-serif" font-size="22" font-weight="700" letter-spacing="0.12em">DART + FLUTTER</text>
  <text x="568" y="234" fill="#e0f2fe" font-family="Helvetica, Arial, sans-serif" font-size="22" font-weight="700" letter-spacing="0.12em">LOCAL INFERENCE</text>
  <text x="568" y="326" fill="#ffffff" font-family="Helvetica, Arial, sans-serif" font-size="66" font-weight="700">llamadart</text>
  <text x="568" y="388" fill="#bfdbfe" font-family="Helvetica, Arial, sans-serif" font-size="56" font-weight="700">documentation</text>
  <text x="568" y="436" fill="#cbd5e1" font-family="Helvetica, Arial, sans-serif" font-size="25" font-weight="600">Run GGUF models locally across</text>
  <text x="568" y="468" fill="#cbd5e1" font-family="Helvetica, Arial, sans-serif" font-size="25" font-weight="600">Android, iOS, desktop, and web.</text>
  <text x="568" y="508" fill="#bfdbfe" font-family="Menlo, Monaco, Consolas, monospace" font-size="23">llamadart.leehack.com</text>

  <rect x="568" y="522" width="182" height="18" rx="9" fill="#38bdf8" fill-opacity="0.32"/>
  <rect x="768" y="522" width="148" height="18" rx="9" fill="#60a5fa" fill-opacity="0.24"/>
  <rect x="934" y="522" width="102" height="18" rx="9" fill="#93c5fd" fill-opacity="0.22"/>
</svg>
